<svg width="132px" height="50px" viewBox="0 0 132 50" version="1.1" xmlns="http://www.w3.org/2000/svg" xmlns:xlink="http://www.w3.org/1999/xlink">
    <g>
        <g id="Header">
            <g id="Group-3">
                <path d="M60.88,10 L63.48,10 L63.48,24 L60.88,24 L60.88,10 Z M81.12,24 L81.1,14.72 L76.5,22.4 L75.34,22.4 L70.74,14.84 L70.74,24 L68.26,24 L68.26,10 L70.4,10 L75.96,19.28 L81.42,10 L83.56,10 L83.58,24 L81.12,24 Z M97.44,20.76 L90.44,20.76 L89.06,24 L86.38,24 L92.68,10 L95.24,10 L101.56,24 L98.84,24 L97.44,20.76 Z M96.58,18.72 L93.94,12.6 L91.32,18.72 L96.58,18.72 Z M113.7,16.84 L116.16,16.84 L116.16,22.42 C115.439996,22.9933362 114.600005,23.4333318 113.64,23.74 C112.679995,24.0466682 111.693338,24.2 110.68,24.2 C109.253326,24.2 107.966672,23.8900031 106.82,23.27 C105.673328,22.6499969 104.773337,21.7933388 104.12,20.7 C103.466663,19.6066612 103.14,18.3733402 103.14,17 C103.14,15.6266598 103.466663,14.3933388 104.12,13.3 C104.773337,12.2066612 105.676661,11.3500031 106.83,10.73 C107.983339,10.1099969 109.279993,9.8 110.72,9.8 C111.893339,9.8 112.959995,9.9933314 113.92,10.38 C114.880005,10.7666686 115.686663,11.3333296 116.34,12.08 L114.7,13.68 C113.633328,12.613328 112.346674,12.08 110.84,12.08 C109.853328,12.08 108.976671,12.2866646 108.21,12.7 C107.44333,13.1133354 106.843335,13.6933296 106.41,14.44 C105.976664,15.1866704 105.76,16.0399952 105.76,17 C105.76,17.933338 105.976664,18.7733296 106.41,19.52 C106.843335,20.2666704 107.44333,20.8533312 108.21,21.28 C108.976671,21.7066688 109.846662,21.92 110.82,21.92 C111.913339,21.92 112.873329,21.6800024 113.7,21.2 L113.7,16.84 Z M131.08,21.82 L131.08,24 L120.58,24 L120.58,10 L130.8,10 L130.8,12.18 L123.18,12.18 L123.18,15.82 L129.94,15.82 L129.94,17.96 L123.18,17.96 L123.18,21.82 L131.08,21.82 Z M66.104,40 L64.184,37.3 C63.9679989,37.3240001 63.7440012,37.336 63.512,37.336 L61.256,37.336 L61.256,40 L60.368,40 L60.368,31.6 L63.512,31.6 C64.5840054,31.6 65.423997,31.8559974 66.032,32.368 C66.640003,32.8800026 66.944,33.5839955 66.944,34.48 C66.944,35.1360033 66.7780017,35.6899977 66.446,36.142 C66.1139983,36.5940023 65.6400031,36.919999 65.024,37.12 L67.076,40 L66.104,40 Z M63.488,36.58 C64.3200042,36.58 64.9559978,36.3960018 65.396,36.028 C65.8360022,35.6599982 66.056,35.1440033 66.056,34.48 C66.056,33.7999966 65.8360022,33.2780018 65.396,32.914 C64.9559978,32.5499982 64.3200042,32.368 63.488,32.368 L61.256,32.368 L61.256,36.58 L63.488,36.58 Z M75.584,39.232 L75.584,40 L69.644,40 L69.644,31.6 L75.404,31.6 L75.404,32.368 L70.532,32.368 L70.532,35.356 L74.876,35.356 L74.876,36.112 L70.532,36.112 L70.532,39.232 L75.584,39.232 Z M80.588,40.072 C79.9639969,40.072 79.3660029,39.972001 78.794,39.772 C78.2219971,39.571999 77.7800016,39.3080016 77.468,38.98 L77.816,38.296 C78.1200015,38.6000015 78.5239975,38.8459991 79.028,39.034 C79.5320025,39.2220009 80.0519973,39.316 80.588,39.316 C81.3400038,39.316 81.9039981,39.1780014 82.28,38.902 C82.6560019,38.6259986 82.844,38.2680022 82.844,37.828 C82.844,37.4919983 82.742001,37.224001 82.538,37.024 C82.333999,36.823999 82.0840015,36.6700005 81.788,36.562 C81.4919985,36.4539995 81.0800026,36.3360006 80.552,36.208 C79.9199968,36.0479992 79.4160019,35.8940007 79.04,35.746 C78.6639981,35.5979993 78.3420013,35.3720015 78.074,35.068 C77.8059987,34.7639985 77.672,34.3520026 77.672,33.832 C77.672,33.4079979 77.7839989,33.0220017 78.008,32.674 C78.2320011,32.3259983 78.5759977,32.048001 79.04,31.84 C79.5040023,31.631999 80.0799966,31.528 80.768,31.528 C81.2480024,31.528 81.7179977,31.5939993 82.178,31.726 C82.6380023,31.8580007 83.0359983,32.0399988 83.372,32.272 L83.072,32.98 C82.7199982,32.7479988 82.344002,32.5740006 81.944,32.458 C81.543998,32.3419994 81.1520019,32.284 80.768,32.284 C80.0319963,32.284 79.4780019,32.4259986 79.106,32.71 C78.7339981,32.9940014 78.548,33.3599978 78.548,33.808 C78.548,34.1440017 78.649999,34.413999 78.854,34.618 C79.058001,34.822001 79.3139985,34.9779995 79.622,35.086 C79.9300015,35.1940005 80.3439974,35.3119994 80.864,35.44 C81.4800031,35.5920008 81.9779981,35.7419993 82.358,35.89 C82.7380019,36.0380007 83.0599987,36.2619985 83.324,36.562 C83.5880013,36.8620015 83.72,37.2679974 83.72,37.78 C83.72,38.2040021 83.6060011,38.5899983 83.378,38.938 C83.1499989,39.2860017 82.8000024,39.561999 82.328,39.766 C81.8559976,39.970001 81.2760034,40.072 80.588,40.072 Z M86.252,31.6 L87.14,31.6 L87.14,40 L86.252,40 L86.252,31.6 Z M96.536,39.232 L96.536,40 L89.648,40 L89.648,39.388 L95.216,32.368 L89.732,32.368 L89.732,31.6 L96.392,31.6 L96.392,32.212 L90.836,39.232 L96.536,39.232 Z M104.828,39.232 L104.828,40 L98.888,40 L98.888,31.6 L104.648,31.6 L104.648,32.368 L99.776,32.368 L99.776,35.356 L104.12,35.356 L104.12,36.112 L99.776,36.112 L99.776,39.232 L104.828,39.232 Z M113.252,40 L111.332,37.3 C111.115999,37.3240001 110.892001,37.336 110.66,37.336 L108.404,37.336 L108.404,40 L107.516,40 L107.516,31.6 L110.66,31.6 C111.732005,31.6 112.571997,31.8559974 113.18,32.368 C113.788003,32.8800026 114.092,33.5839955 114.092,34.48 C114.092,35.1360033 113.926002,35.6899977 113.594,36.142 C113.261998,36.5940023 112.788003,36.919999 112.172,37.12 L114.224,40 L113.252,40 Z M110.636,36.58 C111.468004,36.58 112.103998,36.3960018 112.544,36.028 C112.984002,35.6599982 113.204,35.1440033 113.204,34.48 C113.204,33.7999966 112.984002,33.2780018 112.544,32.914 C112.103998,32.5499982 111.468004,32.368 110.636,32.368 L108.404,32.368 L108.404,36.58 L110.636,36.58 Z" id="IMAGE-RESIZER" fill="#316B8E"></path>
                <g id="logo">
                    <polygon id="Rectangle-path-Copy" stroke="#979797" points="1 1 49 1 48.6577111 49 1 49"></polygon>
                    <g id="Group-2">
                        <g id="Rectangle-path">
                            <g id="path-1-link" fill="#000000" fill-rule="nonzero">
                                <path d="M0.945068359,-1.66443826e-15 L47.6579828,-1.77635684e-15 C48.1799297,-5.58089229e-15 48.6030511,0.423121517 48.6030511,0.945068359 L48.6030511,47.8386229 C48.6030511,48.3605697 48.1799297,48.7836912 47.6579828,48.7836912 L0.945068359,48.7836912 C0.423121517,48.7836912 6.39200532e-17,48.3605697 0,47.8386229 L0,0.945068359 C-6.3920053e-17,0.423121517 0.423121517,-1.45663961e-15 0.945068359,-1.66443826e-15 Z" id="path-1"></path>
                            </g>
                            <g id="path-1-link" fill="#2E9BCC">
                                <path d="M0.945068359,-1.66443826e-15 L47.6579828,-1.77635684e-15 C48.1799297,-5.58089229e-15 48.6030511,0.423121517 48.6030511,0.945068359 L48.6030511,47.8386229 C48.6030511,48.3605697 48.1799297,48.7836912 47.6579828,48.7836912 L0.945068359,48.7836912 C0.423121517,48.7836912 6.39200532e-17,48.3605697 0,47.8386229 L0,0.945068359 C-6.3920053e-17,0.423121517 0.423121517,-1.45663961e-15 0.945068359,-1.66443826e-15 Z" id="path-1"></path>
                            </g>
                        </g>
                        <path d="M1.225,-3.97903932e-13 L47.320129,-3.97903932e-13 C47.8420758,-3.94291157e-13 48.2651973,0.423121517 48.2651973,0.945068359 L48.2651973,46.7848557 L1.225,-3.97903932e-13 Z" id="Shape" fill="#316B8E" fill-rule="nonzero"></path>
                    </g>
                    <g id="Group" transform="translate(6.000000, 8.000000)" fill-rule="nonzero">
                        <path d="M32.1706213,3.82187435 L2.59903244,33.4000704 C2.31192964,33.6872373 1.73772403,33.6872373 1.45062122,33.4000704 C1.16351842,33.1129034 1.16351842,32.5385695 1.45062122,32.2514026 L31.0222102,2.67320654 C31.3093129,2.38603959 31.8835185,2.38603959 32.1706213,2.67320654 C32.4577242,2.96037349 32.4577242,3.53470739 32.1706213,3.82187435 Z" id="Shape" fill="#9CE1FF"></path>
                        <polygon id="Shape" fill="#DEF6FF" points="25.5294118 0 25.5294118 2.64128606 31.8133967 2.64128606 31.8133967 8.93973746 34.4486162 8.93973746 34.4486162 0"></polygon>
                        <polygon id="Shape-Copy" fill="#DEF6FF" transform="translate(4.459602, 29.457821) rotate(180.000000) translate(-4.459602, -29.457821) " points="0 24.9879518 0 27.6292379 6.28398495 27.6292379 6.28398495 33.9276893 8.91920447 33.9276893 8.91920447 24.9879518"></polygon>
                        <polyline id="Shape" fill="#9CE1FF" points="32.1176471 2.64128606 32.1176471 8.93973746 34.7800962 8.93973746 34.7800962 0"></polyline>
                    </g>
                </g>
            </g>
        </g>
    </g>
</svg>