<?xml version="1.0" encoding="UTF-8"?>
<svg width="40px" height="40px" viewBox="0 0 40 40" version="1.1" xmlns="http://www.w3.org/2000/svg" xmlns:xlink="http://www.w3.org/1999/xlink">
    <!-- Generator: Sketch 51.2 (57519) - http://www.bohemiancoding.com/sketch -->
    <title>step-icon-1</title>
    <desc>Created with Sketch.</desc>
    <defs></defs>
    <g id="Page-1" stroke="none" stroke-width="1" fill="none" fill-rule="evenodd">
        <g id="step-icon-1" transform="translate(4.000000, 7.000000)" fill="#4482C3" fill-rule="nonzero">
            <path d="M15.5,22 C15.224,22 15,21.75415 15,21.45 L15,0.55 C15,0.24585 15.224,0 15.5,0 C15.776,0 16,0.24585 16,0.55 L16,21.45 C16,21.75415 15.776,22 15.5,22 Z" id="Shape" stroke="#4482C3"></path>
            <path d="M8.57155102,8 C8.42527053,8 8.27899004,7.944001 8.16756544,7.83257442 C7.94414485,7.60914984 7.94414485,7.24801343 8.16756544,7.02458885 L15.0244634,0.167568436 C15.247884,-0.0558561454 15.609014,-0.0558561454 15.8324346,0.167568436 C16.0558551,0.390993018 16.0558551,0.752129426 15.8324346,0.975554008 L8.97553659,7.83257442 C8.864112,7.944001 8.71783151,8 8.57155102,8 Z" id="Shape" stroke="#4482C3"></path>
            <path d="M22.428449,8 C22.2821685,8 22.135888,7.944001 22.0244634,7.83257442 L15.1675654,0.975554008 C14.9441449,0.752129426 14.9441449,0.390993018 15.1675654,0.167568436 C15.390986,-0.0558561454 15.752116,-0.0558561454 15.9755366,0.167568436 L22.8324346,7.02458885 C23.0558551,7.24801343 23.0558551,7.60914984 22.8324346,7.83257442 C22.72101,7.944001 22.5747295,8 22.428449,8 Z" id="Shape"></path>
            <path d="M22.428449,8 C22.2821685,8 22.135888,7.944001 22.0244634,7.83257442 L15.1675654,0.975554008 C14.9441449,0.752129426 14.9441449,0.390993018 15.1675654,0.167568436 C15.390986,-0.0558561454 15.752116,-0.0558561454 15.9755366,0.167568436 L22.8324346,7.02458885 C23.0558551,7.24801343 23.0558551,7.60914984 22.8324346,7.83257442 C22.72101,7.944001 22.5747295,8 22.428449,8 Z" id="Shape" stroke="#4482C3"></path>
            <path d="M32,27 L0,27 L0,19.5714286 C0,19.2554286 0.256,19 0.571428571,19 C0.886857143,19 1.14285714,19.2554286 1.14285714,19.5714286 L1.14285714,25.8571429 L30.8571429,25.8571429 L30.8571429,19.5714286 C30.8571429,19.2554286 31.1131429,19 31.4285714,19 C31.744,19 32,19.2554286 32,19.5714286 L32,27 Z" id="Shape" stroke="#4482C3"></path>
        </g>
    </g>
</svg>