<?xml version="1.0" encoding="UTF-8"?>
<svg width="40px" height="40px" viewBox="0 0 40 40" version="1.1" xmlns="http://www.w3.org/2000/svg" xmlns:xlink="http://www.w3.org/1999/xlink">
    <!-- Generator: Sketch 51.2 (57519) - http://www.bohemiancoding.com/sketch -->
    <title>step-icon-2</title>
    <desc>Created with Sketch.</desc>
    <defs></defs>
    <g id="Page-1" stroke="none" stroke-width="1" fill="none" fill-rule="evenodd">
        <g id="step-icon-2" transform="translate(4.000000, 4.000000)" fill="#4482C3" fill-rule="nonzero" stroke="#4482C3">
            <path d="M19.5,14 C19.2235,14 19,13.7556364 19,13.4545455 L19,2.54545455 C19,2.24436364 19.2235,2 19.5,2 C19.7765,2 20,2.24436364 20,2.54545455 L20,13.4545455 C20,13.7556364 19.7765,14 19.5,14 Z" id="Shape"></path>
            <path d="M30.4545455,14 L19.5454545,14 C19.2438182,14 19,13.776 19,13.5 C19,13.224 19.2438182,13 19.5454545,13 L30.4545455,13 C30.7561818,13 31,13.224 31,13.5 C31,13.776 30.7561818,14 30.4545455,14 Z" id="Shape"></path>
            <path d="M19.5385858,14 C19.4007423,14 19.2628988,13.9472313 19.1579008,13.8422323 C18.9473664,13.6316958 18.9473664,13.2913914 19.1579008,13.080855 L32.0807292,0.157902328 C32.2912636,-0.0526341093 32.6315648,-0.0526341093 32.8420992,0.157902328 C33.0526336,0.368438765 33.0526336,0.708743185 32.8420992,0.919279622 L19.9192708,13.8422323 C19.8142728,13.9472313 19.6764293,14 19.5385858,14 Z" id="Shape"></path>
            <path d="M13.5,31 C13.2235,31 13,30.7556364 13,30.4545455 L13,19.5454545 C13,19.2443636 13.2235,19 13.5,19 C13.7765,19 14,19.2443636 14,19.5454545 L14,30.4545455 C14,30.7556364 13.7765,31 13.5,31 Z" id="Shape"></path>
            <path d="M13.4545455,20 L2.54545455,20 C2.24381818,20 2,19.776 2,19.5 C2,19.224 2.24381818,19 2.54545455,19 L13.4545455,19 C13.7561818,19 14,19.224 14,19.5 C14,19.776 13.7561818,20 13.4545455,20 Z" id="Shape"></path>
            <path d="M0.538585796,33 C0.400742293,33 0.26289879,32.9472313 0.15790081,32.8422323 C-0.0526336032,32.6316958 -0.0526336032,32.2913914 0.15790081,32.080855 L13.0807292,19.1579023 C13.2912636,18.9473659 13.6315648,18.9473659 13.8420992,19.1579023 C14.0526336,19.3684388 14.0526336,19.7087432 13.8420992,19.9192796 L0.919270783,32.8422323 C0.814272802,32.9472313 0.676429299,33 0.538585796,33 Z" id="Shape"></path>
        </g>
    </g>
</svg>