<?xml version="1.0" encoding="UTF-8"?>
<svg width="113px" height="50px" viewBox="0 0 113 50" version="1.1" xmlns="http://www.w3.org/2000/svg" xmlns:xlink="http://www.w3.org/1999/xlink">
    <!-- Generator: Sketch 51.2 (57519) - http://www.bohemiancoding.com/sketch -->
    <title>Group 3</title>
    <desc>Created with Sketch.</desc>
    <defs></defs>
    <g id="Page-1" stroke="none" stroke-width="1" fill="none" fill-rule="evenodd">
        <g id="Header">
            <g id="Group-3">
                <path d="M60.66,23 L60.66,9.92 L62.98,9.92 L62.98,23 L60.66,23 Z M66.3,23 L66.3,9.92 L68.92,9.92 L71.24,16.32 C71.3866674,16.7333354 71.526666,17.1566645 71.66,17.59 C71.793334,18.0233355 71.9333326,18.4533312 72.08,18.88 L72.16,18.88 C72.3066674,18.4533312 72.4433327,18.0233355 72.57,17.59 C72.6966673,17.1566645 72.8333326,16.7333354 72.98,16.32 L75.24,9.92 L77.88,9.92 L77.88,23 L75.74,23 L75.74,17.02 C75.74,16.7133318 75.7499999,16.3800018 75.77,16.02 C75.7900001,15.6599982 75.8133332,15.2966685 75.84,14.93 C75.8666668,14.5633315 75.8999998,14.2033351 75.94,13.85 C75.9800002,13.4966649 76.0133332,13.1666682 76.04,12.86 L75.96,12.86 L74.9,15.9 L72.76,21.78 L71.38,21.78 L69.22,15.9 L68.18,12.86 L68.1,12.86 C68.1266668,13.1666682 68.1566665,13.4966649 68.19,13.85 C68.2233335,14.2033351 68.2566665,14.5633315 68.29,14.93 C68.3233335,15.2966685 68.3499999,15.6599982 68.37,16.02 C68.3900001,16.3800018 68.4,16.7133318 68.4,17.02 L68.4,23 L66.3,23 Z M83.88,16.04 L83.42,17.64 L86.76,17.64 L86.3,16.04 C86.0866656,15.3466632 85.8833343,14.633337 85.69,13.9 C85.4966657,13.166663 85.3066676,12.4400036 85.12,11.72 L85.04,11.72 C84.8533324,12.453337 84.6666676,13.1833297 84.48,13.91 C84.2933324,14.6366703 84.0933344,15.3466632 83.88,16.04 Z M79.5,23 L83.76,9.92 L86.48,9.92 L90.74,23 L88.3,23 L87.28,19.46 L82.88,19.46 L81.86,23 L79.5,23 Z M97.64,23.24 C96.7599956,23.24 95.9433371,23.0933348 95.19,22.8 C94.4366629,22.5066652 93.7833361,22.0733362 93.23,21.5 C92.6766639,20.9266638 92.2466682,20.2200042 91.94,19.38 C91.6333318,18.5399958 91.48,17.5800054 91.48,16.5 C91.48,15.433328 91.6399984,14.4766709 91.96,13.63 C92.2800016,12.7833291 92.7166639,12.0666696 93.27,11.48 C93.8233361,10.8933304 94.4766629,10.4466682 95.23,10.14 C95.9833371,9.8333318 96.793329,9.68 97.66,9.68 C98.593338,9.68 99.3833301,9.8499983 100.03,10.19 C100.67667,10.5300017 101.206665,10.9133312 101.62,11.34 L100.38,12.84 C100.046665,12.5199984 99.6766687,12.2500011 99.27,12.03 C98.8633313,11.8099989 98.3533364,11.7 97.74,11.7 C97.1533304,11.7 96.6233357,11.8099989 96.15,12.03 C95.6766643,12.2500011 95.2700017,12.5633313 94.93,12.97 C94.5899983,13.3766687 94.3266676,13.8733304 94.14,14.46 C93.9533324,15.0466696 93.86,15.706663 93.86,16.44 C93.86,17.9333408 94.1966633,19.1033291 94.87,19.95 C95.5433367,20.7966709 96.5399934,21.22 97.86,21.22 C98.2333352,21.22 98.586665,21.1700005 98.92,21.07 C99.253335,20.9699995 99.5266656,20.8266676 99.74,20.64 L99.74,17.82 L97.26,17.82 L97.26,15.92 L101.82,15.92 L101.82,21.68 C101.379998,22.1200022 100.79667,22.4899985 100.07,22.79 C99.3433297,23.0900015 98.5333378,23.24 97.64,23.24 Z M104.72,23 L104.72,9.92 L112.6,9.92 L112.6,11.88 L107.04,11.88 L107.04,15.22 L111.74,15.22 L111.74,17.18 L107.04,17.18 L107.04,21.04 L112.8,21.04 L112.8,23 L104.72,23 Z M60.26,39 L60.26,29.816 L63.13,29.816 C63.596669,29.816 64.0283314,29.8603329 64.425,29.949 C64.8216687,30.0376671 65.1623319,30.1846656 65.447,30.39 C65.7316681,30.5953344 65.9533325,30.8613317 66.112,31.188 C66.2706675,31.5146683 66.35,31.9159976 66.35,32.392 C66.35,33.1106703 66.1633352,33.6846645 65.79,34.114 C65.4166648,34.5433355 64.9126698,34.8373325 64.278,34.996 L66.616,39 L65.3,39 L63.088,35.122 L61.422,35.122 L61.422,39 L60.26,39 Z M61.422,34.17 L62.962,34.17 C63.6806703,34.17 64.2313314,34.0230015 64.614,33.729 C64.9966686,33.4349985 65.188,32.9893363 65.188,32.392 C65.188,31.7853303 64.9966686,31.3606679 64.614,31.118 C64.2313314,30.8753321 63.6806703,30.754 62.962,30.754 L61.422,30.754 L61.422,34.17 Z M68.226,39 L68.226,29.816 L73.518,29.816 L73.518,30.796 L69.388,30.796 L69.388,33.68 L72.874,33.68 L72.874,34.674 L69.388,34.674 L69.388,38.006 L73.658,38.006 L73.658,39 L68.226,39 Z M78.152,39.168 C77.5079968,39.168 76.9106694,39.0466679 76.36,38.804 C75.8093306,38.5613321 75.3333353,38.2300021 74.932,37.81 L75.632,36.998 C75.9586683,37.3433351 76.3436645,37.620999 76.787,37.831 C77.2303356,38.0410011 77.6899976,38.146 78.166,38.146 C78.7726697,38.146 79.2439983,38.0083347 79.58,37.733 C79.9160017,37.4576653 80.084,37.0960022 80.084,36.648 C80.084,36.4146655 80.0443337,36.2163342 79.965,36.053 C79.8856663,35.8896659 79.778334,35.7496673 79.643,35.633 C79.507666,35.5163328 79.3466676,35.4113338 79.16,35.318 C78.9733324,35.2246662 78.7726677,35.1266672 78.558,35.024 L77.242,34.45 C77.0273323,34.3566662 76.8080011,34.2446673 76.584,34.114 C76.3599989,33.9833327 76.1593342,33.8246676 75.982,33.638 C75.8046658,33.4513324 75.6600006,33.229668 75.548,32.973 C75.4359994,32.7163321 75.38,32.4200017 75.38,32.084 C75.38,31.7386649 75.4523326,31.4166682 75.597,31.118 C75.7416674,30.8193318 75.9423321,30.5603344 76.199,30.341 C76.455668,30.1216656 76.7589983,29.9513339 77.109,29.83 C77.4590017,29.7086661 77.8439979,29.648 78.264,29.648 C78.8146694,29.648 79.323331,29.752999 79.79,29.963 C80.256669,30.1730011 80.6533317,30.4459983 80.98,30.782 L80.35,31.538 C80.0699986,31.267332 79.7596684,31.0550008 79.419,30.901 C79.0783316,30.7469992 78.6933355,30.67 78.264,30.67 C77.7506641,30.67 77.3376682,30.7889988 77.025,31.027 C76.7123318,31.2650012 76.556,31.5939979 76.556,32.014 C76.556,32.2380011 76.6003329,32.4269992 76.689,32.581 C76.7776671,32.7350008 76.8966659,32.8703328 77.046,32.987 C77.1953341,33.1036673 77.3586658,33.2063329 77.536,33.295 C77.7133342,33.3836671 77.8953324,33.465333 78.082,33.54 L79.384,34.1 C79.6453346,34.2120006 79.8926655,34.3403326 80.126,34.485 C80.3593345,34.6296674 80.5599992,34.7976657 80.728,34.989 C80.8960008,35.1803343 81.0289995,35.4043321 81.127,35.661 C81.2250005,35.917668 81.274,36.2139983 81.274,36.55 C81.274,36.9140018 81.2016674,37.2546651 81.057,37.572 C80.9123326,37.8893349 80.704668,38.1669988 80.434,38.405 C80.163332,38.6430012 79.8366686,38.829666 79.454,38.965 C79.0713314,39.100334 78.6373358,39.168 78.152,39.168 Z M83.08,39 L83.08,29.816 L84.242,29.816 L84.242,39 L83.08,39 Z M86.132,39 L86.132,38.3 L90.962,30.796 L86.566,30.796 L86.566,29.816 L92.418,29.816 L92.418,30.502 L87.574,38.006 L92.46,38.006 L92.46,39 L86.132,39 Z M94.308,39 L94.308,29.816 L99.6,29.816 L99.6,30.796 L95.47,30.796 L95.47,33.68 L98.956,33.68 L98.956,34.674 L95.47,34.674 L95.47,38.006 L99.74,38.006 L99.74,39 L94.308,39 Z M101.686,39 L101.686,29.816 L104.556,29.816 C105.022669,29.816 105.454331,29.8603329 105.851,29.949 C106.247669,30.0376671 106.588332,30.1846656 106.873,30.39 C107.157668,30.5953344 107.379333,30.8613317 107.538,31.188 C107.696667,31.5146683 107.776,31.9159976 107.776,32.392 C107.776,33.1106703 107.589335,33.6846645 107.216,34.114 C106.842665,34.5433355 106.33867,34.8373325 105.704,34.996 L108.042,39 L106.726,39 L104.514,35.122 L102.848,35.122 L102.848,39 L101.686,39 Z M102.848,34.17 L104.388,34.17 C105.10667,34.17 105.657331,34.0230015 106.04,33.729 C106.422669,33.4349985 106.614,32.9893363 106.614,32.392 C106.614,31.7853303 106.422669,31.3606679 106.04,31.118 C105.657331,30.8753321 105.10667,30.754 104.388,30.754 L102.848,30.754 L102.848,34.17 Z" id="IMAGE-RESIZER" fill="#316B8E"></path>
                <g id="logo" style="mix-blend-mode: overlay;">
                    <polygon id="Rectangle-path-Copy" stroke="#979797" points="1 1 49 1 48.6577111 49 1 49"></polygon>
                    <g id="Group-2">
                        <g id="Rectangle-path">
                            <g id="path-1-link" fill="#000000" fill-rule="nonzero">
                                <path d="M0.945068359,-1.66443826e-15 L47.6579828,-1.77635684e-15 C48.1799297,-5.58089229e-15 48.6030511,0.423121517 48.6030511,0.945068359 L48.6030511,47.8386229 C48.6030511,48.3605697 48.1799297,48.7836912 47.6579828,48.7836912 L0.945068359,48.7836912 C0.423121517,48.7836912 6.39200532e-17,48.3605697 0,47.8386229 L0,0.945068359 C-6.3920053e-17,0.423121517 0.423121517,-1.45663961e-15 0.945068359,-1.66443826e-15 Z" id="path-1"></path>
                            </g>
                            <g id="path-1-link" fill="#2E9BCC">
                                <path d="M0.945068359,-1.66443826e-15 L47.6579828,-1.77635684e-15 C48.1799297,-5.58089229e-15 48.6030511,0.423121517 48.6030511,0.945068359 L48.6030511,47.8386229 C48.6030511,48.3605697 48.1799297,48.7836912 47.6579828,48.7836912 L0.945068359,48.7836912 C0.423121517,48.7836912 6.39200532e-17,48.3605697 0,47.8386229 L0,0.945068359 C-6.3920053e-17,0.423121517 0.423121517,-1.45663961e-15 0.945068359,-1.66443826e-15 Z" id="path-1"></path>
                            </g>
                        </g>
                        <path d="M1.225,-3.97903932e-13 L47.320129,-3.97903932e-13 C47.8420758,-3.94291157e-13 48.2651973,0.423121517 48.2651973,0.945068359 L48.2651973,46.7848557 L1.225,-3.97903932e-13 Z" id="Shape" fill="#316B8E" fill-rule="nonzero"></path>
                    </g>
                    <g id="Group" transform="translate(6.000000, 8.000000)" fill-rule="nonzero">
                        <path d="M32.1706213,3.82187435 L2.59903244,33.4000704 C2.31192964,33.6872373 1.73772403,33.6872373 1.45062122,33.4000704 C1.16351842,33.1129034 1.16351842,32.5385695 1.45062122,32.2514026 L31.0222102,2.67320654 C31.3093129,2.38603959 31.8835185,2.38603959 32.1706213,2.67320654 C32.4577242,2.96037349 32.4577242,3.53470739 32.1706213,3.82187435 Z" id="Shape" fill="#9CE1FF"></path>
                        <polygon id="Shape" fill="#DEF6FF" points="25.5294118 0 25.5294118 2.64128606 31.8133967 2.64128606 31.8133967 8.93973746 34.4486162 8.93973746 34.4486162 0"></polygon>
                        <polygon id="Shape-Copy" fill="#DEF6FF" transform="translate(4.459602, 29.457821) rotate(180.000000) translate(-4.459602, -29.457821) " points="0 24.9879518 0 27.6292379 6.28398495 27.6292379 6.28398495 33.9276893 8.91920447 33.9276893 8.91920447 24.9879518"></polygon>
                        <polyline id="Shape" fill="#9CE1FF" points="32.1176471 2.64128606 32.1176471 8.93973746 34.7800962 8.93973746 34.7800962 0"></polyline>
                    </g>
                </g>
            </g>
        </g>
    </g>
</svg>